<svg xmlns="http://www.w3.org/2000/svg" xmlns:xlink="http://www.w3.org/1999/xlink" width="500" zoomAndPan="magnify" viewBox="0 0 375 374.999991" height="500" preserveAspectRatio="xMidYMid meet" version="1.0"><defs><clipPath id="169b33e542"><path d="M 62.515625 128 L 312.265625 128 L 312.265625 268.371094 L 62.515625 268.371094 Z M 62.515625 128 " clip-rule="nonzero"/></clipPath><clipPath id="9c337b68b5"><path d="M 155 262 L 157 262 L 157 268.371094 L 155 268.371094 Z M 155 262 " clip-rule="nonzero"/></clipPath><clipPath id="bb8e9bb92d"><path d="M 216 262 L 218 262 L 218 268.371094 L 216 268.371094 Z M 216 262 " clip-rule="nonzero"/></clipPath><clipPath id="6ec780d133"><path d="M 9.855469 9.855469 L 365.355469 9.855469 L 365.355469 365.355469 L 9.855469 365.355469 Z M 9.855469 9.855469 " clip-rule="nonzero"/></clipPath><clipPath id="0c07d30b86"><path d="M 187.605469 9.855469 C 89.433594 9.855469 9.855469 89.433594 9.855469 187.605469 C 9.855469 285.773438 89.433594 365.355469 187.605469 365.355469 C 285.773438 365.355469 365.355469 285.773438 365.355469 187.605469 C 365.355469 89.433594 285.773438 9.855469 187.605469 9.855469 Z M 187.605469 9.855469 " clip-rule="nonzero"/></clipPath></defs><g clip-path="url(#169b33e542)"><path fill="#000000" d="M 311.699219 268.371094 L 63.078125 268.371094 C 62.875 268.371094 62.671875 268.167969 62.671875 267.964844 L 62.671875 129.3125 C 62.671875 129.109375 62.875 128.902344 63.078125 128.902344 L 74.300781 128.902344 C 74.503906 128.902344 74.707031 129.109375 74.707031 129.3125 C 74.707031 129.515625 74.503906 129.71875 74.300781 129.71875 L 63.488281 129.71875 L 63.488281 267.660156 L 311.292969 267.660156 L 311.292969 129.617188 L 296.601562 129.617188 C 296.398438 129.617188 296.195312 129.414062 296.195312 129.210938 C 296.195312 129.007812 296.398438 128.800781 296.601562 128.800781 L 311.699219 128.800781 C 311.90625 128.800781 312.109375 129.007812 312.109375 129.210938 L 312.109375 267.964844 C 312.007812 268.269531 311.90625 268.371094 311.699219 268.371094 Z M 311.699219 268.371094 " fill-opacity="1" fill-rule="nonzero"/></g><path fill="#000000" d="M 74.300781 176.003906 C 74.097656 176.003906 73.894531 175.800781 73.894531 175.597656 L 73.894531 129.3125 C 73.894531 129.109375 74.097656 128.902344 74.300781 128.902344 C 74.503906 128.902344 74.707031 129.109375 74.707031 129.3125 L 74.707031 175.699219 C 74.605469 175.800781 74.503906 176.003906 74.300781 176.003906 Z M 74.300781 176.003906 " fill-opacity="1" fill-rule="nonzero"/><path fill="#000000" d="M 131.839844 256.851562 C 108.679688 255.527344 74.707031 255.527344 74.402344 255.527344 C 74.199219 255.527344 73.996094 255.324219 73.996094 255.121094 L 73.894531 181.917969 C 73.894531 181.714844 74.097656 181.511719 74.300781 181.511719 C 74.503906 181.511719 74.707031 181.714844 74.707031 181.917969 L 74.8125 254.8125 C 78.585938 254.8125 110.007812 254.914062 131.839844 256.140625 C 132.042969 256.140625 132.246094 256.34375 132.246094 256.546875 C 132.246094 256.75 132.042969 256.851562 131.839844 256.851562 Z M 131.839844 256.851562 " fill-opacity="1" fill-rule="nonzero"/><path fill="#000000" d="M 81.75 225.960938 C 81.542969 225.960938 81.339844 225.757812 81.339844 225.554688 L 80.726562 124.316406 C 80.726562 124.113281 80.933594 123.910156 81.136719 123.910156 C 81.339844 123.910156 81.542969 124.113281 81.542969 124.316406 L 82.15625 225.554688 C 82.15625 225.757812 82.054688 225.960938 81.75 225.960938 Z M 81.75 225.960938 " fill-opacity="1" fill-rule="nonzero"/><path fill="#000000" d="M 81.75 249.917969 C 81.542969 249.917969 81.339844 249.714844 81.339844 249.511719 L 81.339844 229.222656 C 81.339844 229.019531 81.542969 228.816406 81.75 228.816406 C 81.953125 228.816406 82.15625 229.019531 82.15625 229.222656 L 82.15625 249.511719 C 82.15625 249.714844 81.953125 249.917969 81.75 249.917969 Z M 81.75 249.917969 " fill-opacity="1" fill-rule="nonzero"/><path fill="#000000" d="M 89.910156 194.152344 C 89.707031 194.152344 89.5 193.949219 89.5 193.746094 L 88.582031 117.28125 C 88.582031 117.078125 88.789062 116.875 88.992188 116.875 C 89.195312 116.875 89.398438 116.976562 89.398438 117.179688 L 90.316406 193.644531 C 90.316406 194.050781 90.113281 194.152344 89.910156 194.152344 Z M 89.910156 194.152344 " fill-opacity="1" fill-rule="nonzero"/><path fill="#000000" d="M 90.316406 243.191406 C 90.113281 243.191406 89.910156 242.988281 89.910156 242.785156 L 89.5 196.90625 C 89.5 196.703125 89.707031 196.496094 89.910156 196.496094 C 90.113281 196.496094 90.316406 196.703125 90.316406 196.90625 L 90.726562 242.785156 C 90.726562 242.988281 90.523438 243.191406 90.316406 243.191406 Z M 90.316406 243.191406 " fill-opacity="1" fill-rule="nonzero"/><path fill="#000000" d="M 67.363281 261.441406 C 67.160156 261.441406 66.957031 261.238281 66.957031 261.03125 C 66.957031 260.929688 67.058594 260.828125 67.058594 260.726562 L 95.828125 238.09375 L 95.726562 110.347656 C 95.726562 110.144531 95.929688 109.941406 96.132812 109.941406 C 96.335938 109.941406 96.542969 110.144531 96.542969 110.347656 L 96.644531 238.296875 C 96.644531 238.398438 96.542969 238.5 96.542969 238.601562 L 67.566406 261.339844 C 67.566406 261.339844 67.464844 261.441406 67.363281 261.441406 Z M 67.363281 261.441406 " fill-opacity="1" fill-rule="nonzero"/><path fill="#000000" d="M 186.113281 262.867188 C 186.011719 262.867188 185.910156 262.867188 185.808594 262.765625 C 162.957031 238.601562 96.847656 238.707031 96.234375 238.601562 C 96.03125 238.601562 95.828125 238.398438 95.828125 238.195312 C 95.828125 237.992188 96.03125 237.789062 96.234375 237.789062 C 96.949219 237.789062 163.363281 237.789062 186.421875 262.152344 C 186.523438 262.359375 186.523438 262.5625 186.421875 262.664062 C 186.316406 262.867188 186.214844 262.867188 186.113281 262.867188 Z M 186.113281 262.867188 " fill-opacity="1" fill-rule="nonzero"/><path fill="#000000" d="M 113.78125 244.414062 C 107.050781 243.394531 90.523438 243.191406 90.316406 243.191406 C 90.113281 243.191406 89.910156 242.988281 89.910156 242.785156 C 89.910156 242.578125 90.113281 242.375 90.316406 242.375 C 90.523438 242.375 107.152344 242.578125 113.78125 243.597656 C 113.988281 243.597656 114.089844 243.804688 114.089844 244.007812 C 114.191406 244.210938 113.988281 244.414062 113.78125 244.414062 Z M 113.78125 244.414062 " fill-opacity="1" fill-rule="nonzero"/><path fill="#000000" d="M 166.324219 263.886719 C 166.21875 263.886719 166.117188 263.886719 166.015625 263.785156 C 147.449219 245.230469 82.460938 249.816406 81.75 249.917969 C 81.542969 249.917969 81.339844 249.816406 81.339844 249.613281 C 81.339844 249.410156 81.441406 249.207031 81.644531 249.207031 C 84.296875 249.003906 147.652344 244.515625 166.527344 263.277344 C 166.628906 263.378906 166.628906 263.683594 166.527344 263.785156 C 166.527344 263.886719 166.425781 263.886719 166.324219 263.886719 Z M 166.324219 263.886719 " fill-opacity="1" fill-rule="nonzero"/><path fill="#000000" d="M 156.019531 263.683594 C 155.917969 263.683594 155.8125 263.683594 155.8125 263.582031 C 148.773438 258.484375 137.347656 257.769531 137.246094 257.769531 C 137.042969 257.769531 136.839844 257.566406 136.839844 257.363281 C 136.839844 257.160156 137.042969 256.953125 137.246094 256.953125 C 137.757812 256.953125 149.082031 257.667969 156.222656 262.867188 C 156.425781 262.96875 156.425781 263.277344 156.324219 263.378906 C 156.222656 263.582031 156.121094 263.683594 156.019531 263.683594 Z M 156.019531 263.683594 " fill-opacity="1" fill-rule="nonzero"/><path fill="#000000" d="M 174.6875 188.75 C 174.585938 188.75 174.585938 188.75 174.484375 188.648438 C 147.449219 170.90625 107.660156 172.132812 107.253906 172.132812 C 107.050781 172.132812 106.84375 171.925781 106.84375 171.722656 C 106.84375 171.519531 107.050781 171.316406 107.253906 171.316406 C 107.660156 171.316406 147.652344 170.09375 174.992188 187.933594 C 175.199219 188.035156 175.199219 188.238281 175.097656 188.445312 C 174.890625 188.648438 174.789062 188.648438 174.6875 188.75 Z M 174.6875 188.75 " fill-opacity="1" fill-rule="nonzero"/><path fill="#000000" d="M 174.585938 199.453125 C 174.484375 199.453125 174.484375 199.453125 174.382812 199.351562 C 147.347656 181.714844 107.457031 182.9375 107.050781 182.9375 C 106.84375 182.9375 106.640625 182.734375 106.640625 182.53125 C 106.640625 182.328125 106.84375 182.121094 107.050781 182.121094 C 107.457031 182.121094 147.449219 180.898438 174.789062 198.742188 C 174.992188 198.84375 174.992188 199.046875 174.890625 199.25 C 174.789062 199.351562 174.6875 199.453125 174.585938 199.453125 Z M 174.585938 199.453125 " fill-opacity="1" fill-rule="nonzero"/><path fill="#000000" d="M 175.402344 211.28125 C 175.300781 211.28125 175.300781 211.28125 175.199219 211.179688 C 148.164062 193.542969 107.660156 194.765625 107.253906 194.867188 C 107.050781 194.867188 106.84375 194.765625 106.84375 194.5625 C 106.84375 194.355469 107.050781 194.152344 107.253906 194.152344 C 107.660156 194.152344 148.46875 192.828125 175.707031 210.667969 C 175.914062 210.769531 175.914062 210.976562 175.808594 211.179688 C 175.707031 211.179688 175.605469 211.28125 175.402344 211.28125 Z M 175.402344 211.28125 " fill-opacity="1" fill-rule="nonzero"/><path fill="#000000" d="M 177.238281 223.3125 C 177.136719 223.3125 177.136719 223.3125 177.035156 223.207031 C 150 205.570312 107.152344 206.691406 106.640625 206.691406 C 106.4375 206.691406 106.234375 206.488281 106.234375 206.285156 C 106.234375 206.082031 106.4375 205.878906 106.640625 205.878906 C 107.050781 205.878906 150.203125 204.652344 177.441406 222.496094 C 177.648438 222.597656 177.648438 222.800781 177.542969 223.003906 C 177.441406 223.207031 177.339844 223.3125 177.238281 223.3125 Z M 177.238281 223.3125 " fill-opacity="1" fill-rule="nonzero"/><path fill="#000000" d="M 176.320312 234.21875 C 176.21875 234.21875 176.21875 234.21875 176.117188 234.117188 C 149.082031 216.480469 107.050781 218.316406 106.640625 218.316406 C 106.4375 218.316406 106.234375 218.214844 106.234375 218.007812 C 106.234375 217.804688 106.335938 217.601562 106.640625 217.601562 C 107.050781 217.601562 149.285156 215.664062 176.523438 233.503906 C 176.726562 233.609375 176.726562 233.8125 176.625 234.015625 C 176.625 234.117188 176.421875 234.21875 176.320312 234.21875 Z M 176.320312 234.21875 " fill-opacity="1" fill-rule="nonzero"/><path fill="#000000" d="M 176.320312 245.84375 C 176.21875 245.84375 176.21875 245.84375 176.117188 245.738281 C 149.082031 228.101562 106.027344 229.53125 105.621094 229.632812 C 105.417969 229.632812 105.210938 229.53125 105.210938 229.324219 C 105.210938 229.121094 105.417969 228.917969 105.621094 228.917969 C 106.027344 228.917969 149.386719 227.390625 176.625 245.230469 C 176.832031 245.332031 176.832031 245.535156 176.726562 245.738281 C 176.625 245.84375 176.523438 245.84375 176.320312 245.84375 Z M 176.320312 245.84375 " fill-opacity="1" fill-rule="nonzero"/><path fill="#000000" d="M 186.113281 264.5 C 185.910156 264.5 185.707031 264.296875 185.707031 264.089844 C 185.707031 263.886719 185.910156 263.683594 186.113281 263.683594 L 303.128906 260.625 L 302.007812 133.492188 C 287.523438 124.519531 275.890625 112.082031 274.667969 110.65625 C 213.660156 107.1875 186.113281 136.246094 185.808594 136.550781 C 185.707031 136.652344 185.398438 136.652344 185.296875 136.550781 C 185.195312 136.449219 185.195312 136.144531 185.296875 136.039062 C 185.605469 135.734375 213.351562 106.371094 274.871094 109.941406 C 274.972656 109.941406 275.074219 110.042969 275.175781 110.042969 C 275.28125 110.144531 287.417969 123.5 302.722656 132.878906 C 302.824219 132.980469 302.925781 133.085938 302.925781 133.1875 L 304.050781 260.929688 C 304.050781 261.132812 303.84375 261.339844 303.640625 261.339844 Z M 186.113281 264.5 " fill-opacity="1" fill-rule="nonzero"/><path fill="#000000" d="M 296.601562 176.003906 C 296.398438 176.003906 296.195312 175.800781 296.195312 175.597656 L 296.195312 129.515625 C 296.195312 129.3125 296.398438 129.109375 296.601562 129.109375 C 296.804688 129.109375 297.007812 129.3125 297.007812 129.515625 L 297.007812 175.699219 C 297.007812 175.902344 296.804688 176.003906 296.601562 176.003906 Z M 296.601562 176.003906 " fill-opacity="1" fill-rule="nonzero"/><path fill="#000000" d="M 239.0625 256.953125 C 238.859375 256.953125 238.65625 256.75 238.65625 256.546875 C 238.65625 256.34375 238.859375 256.140625 238.960938 256.140625 C 260.792969 254.914062 292.214844 254.8125 295.988281 254.8125 L 296.089844 181.917969 C 296.089844 181.714844 296.296875 181.511719 296.5 181.511719 C 296.703125 181.511719 296.90625 181.714844 296.90625 181.917969 L 296.804688 255.121094 C 296.804688 255.324219 296.601562 255.527344 296.398438 255.527344 C 296.089844 255.628906 262.222656 255.628906 239.0625 256.953125 Z M 239.0625 256.953125 " fill-opacity="1" fill-rule="nonzero"/><path fill="#000000" d="M 289.050781 225.960938 C 288.847656 225.960938 288.644531 225.757812 288.644531 225.554688 L 289.257812 124.417969 C 289.257812 124.214844 289.460938 124.011719 289.664062 124.011719 C 289.867188 124.011719 290.070312 124.214844 290.070312 124.417969 L 289.460938 225.554688 C 289.460938 225.757812 289.257812 225.960938 289.050781 225.960938 Z M 289.050781 225.960938 " fill-opacity="1" fill-rule="nonzero"/><path fill="#000000" d="M 289.050781 249.917969 C 288.847656 249.917969 288.644531 249.714844 288.644531 249.511719 L 288.644531 229.222656 C 288.644531 229.019531 288.847656 228.816406 289.050781 228.816406 C 289.257812 228.816406 289.460938 229.019531 289.460938 229.222656 L 289.460938 249.511719 C 289.460938 249.816406 289.257812 249.917969 289.050781 249.917969 Z M 289.050781 249.917969 " fill-opacity="1" fill-rule="nonzero"/><path fill="#000000" d="M 280.992188 194.253906 C 280.789062 194.253906 280.585938 194.050781 280.585938 193.847656 L 281.503906 117.382812 C 281.503906 117.179688 281.605469 116.976562 281.808594 116.976562 C 282.011719 116.976562 282.214844 117.179688 282.214844 117.382812 L 281.296875 193.847656 C 281.296875 194.050781 281.195312 194.253906 280.992188 194.253906 Z M 280.992188 194.253906 " fill-opacity="1" fill-rule="nonzero"/><path fill="#000000" d="M 280.480469 243.191406 C 280.277344 243.191406 280.074219 242.988281 280.074219 242.785156 L 280.480469 196.90625 C 280.480469 196.703125 280.6875 196.496094 280.890625 196.496094 C 281.09375 196.496094 281.296875 196.703125 281.296875 196.90625 L 280.890625 242.785156 C 280.890625 242.988281 280.6875 243.191406 280.480469 243.191406 Z M 280.480469 243.191406 " fill-opacity="1" fill-rule="nonzero"/><path fill="#000000" d="M 303.4375 261.441406 C 303.335938 261.441406 303.234375 261.441406 303.234375 261.339844 L 274.359375 238.601562 C 274.257812 238.5 274.257812 238.398438 274.257812 238.296875 L 274.359375 110.347656 C 274.359375 110.144531 274.566406 109.941406 274.769531 109.941406 C 274.972656 109.941406 275.175781 110.144531 275.175781 110.347656 L 274.972656 238.09375 L 303.742188 260.726562 C 303.945312 260.828125 303.945312 261.132812 303.84375 261.238281 C 303.742188 261.339844 303.640625 261.441406 303.4375 261.441406 Z M 303.4375 261.441406 " fill-opacity="1" fill-rule="nonzero"/><path fill="#000000" d="M 186.113281 262.867188 C 185.910156 262.867188 185.707031 262.664062 185.707031 262.460938 C 185.707031 262.359375 185.707031 262.257812 185.808594 262.152344 C 208.863281 237.789062 273.851562 237.789062 274.566406 237.789062 C 274.769531 237.789062 274.972656 237.992188 274.972656 238.195312 C 274.972656 238.398438 274.769531 238.601562 274.566406 238.601562 C 274.566406 238.601562 274.566406 238.601562 274.464844 238.601562 C 272.320312 238.601562 208.863281 238.910156 186.316406 262.664062 C 186.316406 262.867188 186.214844 262.867188 186.113281 262.867188 Z M 186.113281 262.867188 " fill-opacity="1" fill-rule="nonzero"/><path fill="#000000" d="M 257.019531 244.414062 C 256.8125 244.414062 256.609375 244.210938 256.609375 244.007812 C 256.609375 243.804688 256.710938 243.699219 256.914062 243.597656 C 263.648438 242.578125 280.277344 242.375 280.378906 242.375 C 280.585938 242.375 280.789062 242.578125 280.789062 242.785156 C 280.789062 242.988281 280.585938 243.191406 280.378906 243.191406 C 280.378906 243.191406 263.75 243.394531 257.019531 244.414062 C 257.121094 244.414062 257.121094 244.414062 257.019531 244.414062 Z M 257.019531 244.414062 " fill-opacity="1" fill-rule="nonzero"/><path fill="#000000" d="M 204.476562 263.988281 C 204.273438 263.988281 204.070312 263.785156 204.070312 263.582031 C 204.070312 263.480469 204.070312 263.378906 204.171875 263.277344 C 222.941406 244.515625 286.296875 249.003906 289.050781 249.207031 C 289.257812 249.207031 289.460938 249.410156 289.359375 249.613281 C 289.359375 249.816406 289.152344 250.023438 288.949219 249.917969 C 288.339844 249.917969 223.25 245.332031 204.683594 263.785156 C 204.683594 263.886719 204.578125 263.988281 204.476562 263.988281 Z M 204.476562 263.988281 " fill-opacity="1" fill-rule="nonzero"/><path fill="#000000" d="M 214.882812 263.683594 C 214.679688 263.683594 214.476562 263.480469 214.476562 263.277344 C 214.476562 263.171875 214.578125 263.070312 214.679688 262.96875 C 221.921875 257.769531 233.246094 257.054688 233.65625 257.054688 C 233.859375 257.054688 234.0625 257.160156 234.0625 257.464844 C 234.0625 257.667969 233.960938 257.871094 233.65625 257.871094 C 233.554688 257.871094 222.023438 258.585938 215.085938 263.683594 C 215.085938 263.683594 214.984375 263.683594 214.882812 263.683594 Z M 214.882812 263.683594 " fill-opacity="1" fill-rule="nonzero"/><path fill="#000000" d="M 193.664062 223.3125 C 193.460938 223.3125 193.253906 223.105469 193.253906 222.902344 C 193.253906 222.800781 193.359375 222.699219 193.460938 222.597656 C 220.699219 204.753906 263.851562 205.980469 264.261719 205.980469 C 264.464844 205.980469 264.667969 206.183594 264.667969 206.386719 C 264.667969 206.589844 264.464844 206.792969 264.261719 206.792969 C 263.851562 206.792969 221.003906 205.570312 193.96875 223.3125 C 193.765625 223.3125 193.765625 223.3125 193.664062 223.3125 Z M 193.664062 223.3125 " fill-opacity="1" fill-rule="nonzero"/><path fill="#000000" d="M 194.480469 234.21875 C 194.277344 234.21875 194.070312 234.015625 194.070312 233.8125 C 194.070312 233.710938 194.171875 233.609375 194.277344 233.503906 C 221.515625 215.664062 263.75 217.601562 264.160156 217.601562 C 264.363281 217.601562 264.566406 217.804688 264.566406 218.007812 C 264.566406 218.214844 264.363281 218.417969 264.160156 218.417969 C 263.75 218.417969 221.71875 216.480469 194.683594 234.21875 C 194.683594 234.21875 194.582031 234.21875 194.480469 234.21875 Z M 194.480469 234.21875 " fill-opacity="1" fill-rule="nonzero"/><path fill="#000000" d="M 194.480469 245.945312 C 194.277344 245.945312 194.070312 245.738281 194.070312 245.535156 C 194.070312 245.433594 194.171875 245.332031 194.277344 245.230469 C 221.515625 227.390625 264.769531 228.917969 265.28125 228.917969 C 265.484375 228.917969 265.691406 229.121094 265.691406 229.324219 C 265.691406 229.53125 265.484375 229.734375 265.28125 229.734375 C 264.875 229.734375 221.820312 228.203125 194.785156 245.84375 C 194.683594 245.945312 194.582031 245.945312 194.480469 245.945312 Z M 194.480469 245.945312 " fill-opacity="1" fill-rule="nonzero"/><path fill="#000000" d="M 195.398438 142.972656 C 195.195312 142.972656 194.988281 142.769531 194.988281 142.566406 C 194.988281 142.464844 195.09375 142.363281 195.195312 142.257812 C 222.433594 124.417969 265.585938 125.640625 265.996094 125.640625 C 266.199219 125.640625 266.402344 125.84375 266.402344 126.050781 C 266.402344 126.253906 266.199219 126.457031 265.996094 126.457031 C 265.585938 126.457031 222.738281 125.234375 195.703125 142.972656 C 195.5 142.972656 195.5 142.972656 195.398438 142.972656 Z M 195.398438 142.972656 " fill-opacity="1" fill-rule="nonzero"/><path fill="#000000" d="M 196.214844 153.882812 C 196.011719 153.882812 195.804688 153.679688 195.804688 153.472656 C 195.804688 153.371094 195.90625 153.269531 196.011719 153.167969 C 223.25 135.328125 265.484375 137.265625 265.894531 137.265625 C 266.097656 137.265625 266.300781 137.46875 266.300781 137.671875 C 266.300781 137.875 266.097656 138.078125 265.894531 138.078125 C 265.484375 138.078125 223.453125 136.144531 196.417969 153.882812 C 196.417969 153.882812 196.316406 153.882812 196.214844 153.882812 Z M 196.214844 153.882812 " fill-opacity="1" fill-rule="nonzero"/><path fill="#000000" d="M 196.214844 165.605469 C 196.011719 165.605469 195.804688 165.402344 195.804688 165.199219 C 195.804688 165.097656 195.90625 164.996094 196.011719 164.894531 C 223.25 147.050781 266.503906 148.582031 267.015625 148.582031 C 267.21875 148.582031 267.425781 148.785156 267.425781 148.988281 C 267.425781 149.191406 267.21875 149.394531 267.015625 149.394531 C 266.609375 149.394531 223.554688 147.867188 196.519531 165.503906 C 196.417969 165.605469 196.316406 165.605469 196.214844 165.605469 Z M 196.214844 165.605469 " fill-opacity="1" fill-rule="nonzero"/><path fill="#000000" d="M 186.113281 264.5 L 67.363281 261.441406 C 67.160156 261.441406 66.957031 261.238281 66.957031 261.03125 L 68.078125 133.289062 C 68.078125 133.1875 68.179688 133.085938 68.28125 132.980469 C 83.484375 123.601562 95.621094 110.246094 95.828125 110.144531 C 95.929688 110.042969 96.03125 110.042969 96.132812 110.042969 C 157.652344 106.476562 185.503906 135.835938 185.707031 136.144531 C 185.808594 136.246094 185.808594 136.347656 185.808594 136.449219 L 186.523438 264.296875 C 186.523438 264.398438 186.316406 264.5 186.113281 264.5 Z M 67.769531 260.625 L 185.808594 263.785156 L 185.09375 136.449219 C 183.257812 134.511719 155.507812 107.289062 96.335938 110.65625 C 95.011719 111.980469 83.378906 124.519531 68.894531 133.492188 Z M 67.769531 260.625 " fill-opacity="1" fill-rule="nonzero"/><g clip-path="url(#9c337b68b5)"><path fill="#000000" d="M 156.019531 268.371094 C 155.8125 268.371094 155.609375 268.167969 155.609375 267.964844 L 155.609375 263.277344 C 155.609375 263.070312 155.8125 262.867188 156.019531 262.867188 C 156.222656 262.867188 156.425781 263.070312 156.425781 263.277344 L 156.425781 267.964844 C 156.324219 268.269531 156.222656 268.371094 156.019531 268.371094 Z M 156.019531 268.371094 " fill-opacity="1" fill-rule="nonzero"/></g><g clip-path="url(#bb8e9bb92d)"><path fill="#000000" d="M 216.925781 268.371094 C 216.71875 268.371094 216.515625 268.167969 216.515625 267.964844 L 216.515625 263.277344 C 216.515625 263.070312 216.71875 262.867188 216.925781 262.867188 C 217.128906 262.867188 217.332031 263.070312 217.332031 263.277344 L 217.332031 267.964844 C 217.332031 268.269531 217.230469 268.371094 216.925781 268.371094 Z M 216.925781 268.371094 " fill-opacity="1" fill-rule="nonzero"/></g><path fill="#000000" d="M 236.511719 162.445312 C 236.308594 162.445312 236.105469 162.242188 236.105469 162.039062 C 236.105469 161.835938 236.207031 161.730469 236.410156 161.628906 C 254.160156 158.878906 265.894531 159.796875 265.996094 159.796875 C 266.199219 159.796875 266.402344 160 266.300781 160.203125 C 266.300781 160.40625 266.097656 160.609375 265.894531 160.507812 C 265.792969 160.609375 254.160156 159.691406 236.511719 162.445312 Z M 236.511719 162.445312 " fill-opacity="1" fill-rule="nonzero"/><path fill="#000000" d="M 237.226562 174.984375 C 237.023438 174.984375 236.816406 174.78125 236.816406 174.578125 C 236.816406 174.375 236.921875 174.273438 237.125 174.171875 C 254.875 171.417969 266.609375 172.335938 266.710938 172.335938 C 266.914062 172.335938 267.117188 172.539062 267.015625 172.742188 C 267.015625 172.945312 266.8125 173.152344 266.609375 173.050781 C 266.609375 173.152344 254.976562 172.335938 237.226562 174.984375 C 237.328125 174.984375 237.328125 174.984375 237.226562 174.984375 Z M 237.226562 174.984375 " fill-opacity="1" fill-rule="nonzero"/><path fill="#000000" d="M 237.429688 186.300781 C 237.226562 186.300781 237.023438 186.097656 237.023438 185.894531 C 237.023438 185.691406 237.125 185.589844 237.328125 185.488281 C 255.078125 182.734375 266.8125 183.652344 266.914062 183.652344 C 267.117188 183.652344 267.320312 183.855469 267.21875 184.058594 C 267.21875 184.261719 267.015625 184.46875 266.8125 184.367188 C 266.710938 184.46875 255.078125 183.652344 237.429688 186.300781 Z M 237.429688 186.300781 " fill-opacity="1" fill-rule="nonzero"/><path fill="#000000" d="M 237.226562 197.3125 C 237.023438 197.3125 236.816406 197.109375 236.816406 196.90625 C 236.816406 196.703125 236.921875 196.597656 237.125 196.496094 C 254.875 193.746094 266.609375 194.664062 266.710938 194.664062 C 266.914062 194.664062 267.117188 194.867188 267.015625 195.070312 C 267.015625 195.273438 266.8125 195.476562 266.609375 195.375 C 266.609375 195.375 254.976562 194.5625 237.226562 197.3125 C 237.328125 197.3125 237.328125 197.3125 237.226562 197.3125 Z M 237.226562 197.3125 " fill-opacity="1" fill-rule="nonzero"/><path fill="#000000" d="M 174.6875 177.535156 C 174.585938 177.535156 174.585938 177.535156 174.484375 177.535156 C 145.101562 162.039062 106.234375 161.222656 105.824219 161.222656 C 105.621094 161.222656 105.417969 161.019531 105.417969 160.816406 L 104.90625 122.890625 C 104.90625 122.683594 105.109375 122.480469 105.316406 122.480469 C 147.449219 120.851562 175.402344 142.566406 175.707031 142.769531 C 175.808594 142.871094 175.808594 142.972656 175.808594 143.074219 L 175.097656 177.128906 C 175.097656 177.230469 174.992188 177.332031 174.890625 177.433594 C 174.789062 177.433594 174.789062 177.535156 174.6875 177.535156 Z M 106.234375 160.40625 C 110.3125 160.507812 146.429688 162.039062 174.28125 176.414062 L 174.992188 143.175781 C 172.75 141.445312 145.714844 121.664062 105.621094 123.195312 Z M 106.234375 160.40625 " fill-opacity="1" fill-rule="nonzero"/><path fill="#000000" d="M 121.230469 146.03125 C 119.699219 146.03125 118.476562 144.808594 118.476562 143.277344 C 118.476562 141.75 119.699219 140.527344 121.230469 140.527344 C 122.761719 140.527344 123.984375 141.75 123.984375 143.277344 C 124.085938 144.808594 122.761719 146.03125 121.230469 146.03125 Z M 121.230469 141.242188 C 120.109375 141.242188 119.1875 142.15625 119.1875 143.277344 C 119.1875 144.402344 120.109375 145.316406 121.230469 145.316406 C 122.351562 145.316406 123.269531 144.402344 123.269531 143.277344 C 123.269531 142.15625 122.351562 141.242188 121.230469 141.242188 Z M 121.230469 141.242188 " fill-opacity="1" fill-rule="nonzero"/><path fill="#000000" d="M 115.109375 144.910156 C 113.988281 144.910156 113.066406 143.992188 113.066406 142.871094 C 113.066406 141.75 113.988281 140.832031 115.109375 140.832031 C 116.230469 140.832031 117.148438 141.75 117.148438 142.871094 C 117.148438 143.992188 116.230469 144.910156 115.109375 144.910156 Z M 115.109375 141.648438 C 114.394531 141.648438 113.882812 142.15625 113.882812 142.871094 C 113.882812 143.585938 114.394531 144.09375 115.109375 144.09375 C 115.824219 144.09375 116.332031 143.585938 116.332031 142.871094 C 116.332031 142.15625 115.824219 141.648438 115.109375 141.648438 Z M 115.109375 141.648438 " fill-opacity="1" fill-rule="nonzero"/><path fill="#000000" d="M 111.027344 143.890625 C 110.3125 143.890625 109.703125 143.277344 109.703125 142.566406 C 109.703125 141.851562 110.3125 141.242188 111.027344 141.242188 C 111.742188 141.242188 112.355469 141.851562 112.355469 142.566406 C 112.457031 143.277344 111.84375 143.890625 111.027344 143.890625 Z M 111.027344 141.953125 C 110.722656 141.953125 110.414062 142.257812 110.414062 142.566406 C 110.414062 142.871094 110.722656 143.175781 111.027344 143.175781 C 111.332031 143.175781 111.640625 142.871094 111.640625 142.566406 C 111.640625 142.15625 111.332031 141.953125 111.027344 141.953125 Z M 111.027344 141.953125 " fill-opacity="1" fill-rule="nonzero"/><path fill="#000000" d="M 162.140625 154.902344 C 160.609375 154.902344 159.386719 153.679688 159.386719 152.148438 C 159.386719 151.84375 159.386719 151.640625 159.488281 151.332031 C 159.894531 149.90625 161.425781 148.988281 162.957031 149.394531 C 164.382812 149.804688 165.300781 151.332031 164.894531 152.863281 C 164.484375 154.085938 163.363281 154.902344 162.140625 154.902344 Z M 160.203125 151.539062 C 159.894531 152.660156 160.507812 153.78125 161.527344 154.085938 C 162.648438 154.390625 163.773438 153.78125 164.078125 152.761719 C 164.382812 151.640625 163.773438 150.519531 162.75 150.210938 C 161.628906 149.804688 160.507812 150.414062 160.203125 151.539062 Z M 160.203125 151.539062 " fill-opacity="1" fill-rule="nonzero"/><path fill="#000000" d="M 142.652344 153.472656 C 141.941406 153.472656 141.328125 153.371094 140.613281 153.167969 C 136.839844 152.046875 134.695312 148.171875 135.820312 144.402344 C 136.941406 140.628906 140.816406 138.488281 144.59375 139.609375 C 148.367188 140.730469 150.507812 144.605469 149.386719 148.375 C 148.46875 151.332031 145.714844 153.371094 142.652344 153.472656 Z M 142.550781 140.015625 C 139.695312 140.015625 137.246094 141.851562 136.53125 144.605469 C 135.613281 147.96875 137.449219 151.433594 140.816406 152.453125 C 144.183594 153.371094 147.652344 151.539062 148.671875 148.171875 C 149.589844 144.808594 147.753906 141.34375 144.386719 140.324219 C 143.777344 140.117188 143.164062 140.015625 142.550781 140.015625 Z M 136.125 144.503906 Z M 136.125 144.503906 " fill-opacity="1" fill-rule="nonzero"/><path fill="#000000" d="M 167.953125 156.125 C 166.832031 156.125 165.914062 155.207031 165.914062 154.085938 C 165.914062 152.964844 166.832031 152.046875 167.953125 152.046875 C 169.078125 152.046875 169.996094 152.964844 169.996094 154.085938 C 169.996094 154.289062 169.996094 154.492188 169.894531 154.597656 C 169.585938 155.617188 168.871094 156.125 167.953125 156.125 Z M 167.953125 152.964844 C 167.445312 152.964844 166.933594 153.371094 166.730469 153.882812 C 166.527344 154.492188 166.933594 155.207031 167.546875 155.410156 C 168.160156 155.617188 168.871094 155.207031 169.078125 154.597656 C 169.28125 153.984375 168.871094 153.269531 168.261719 153.066406 C 168.160156 152.964844 168.058594 152.964844 167.953125 152.964844 Z M 167.953125 152.964844 " fill-opacity="1" fill-rule="nonzero"/><path fill="#000000" d="M 171.730469 157.042969 C 171.628906 157.042969 171.421875 157.042969 171.320312 156.941406 C 170.605469 156.738281 170.199219 156.023438 170.402344 155.207031 C 170.605469 154.492188 171.320312 154.085938 172.136719 154.289062 C 172.953125 154.492188 173.257812 155.207031 173.054688 156.023438 C 172.851562 156.636719 172.339844 157.042969 171.730469 157.042969 Z M 171.730469 155.003906 C 171.421875 155.003906 171.117188 155.308594 171.117188 155.617188 C 171.117188 155.921875 171.320312 156.125 171.527344 156.226562 C 171.730469 156.226562 171.832031 156.226562 171.933594 156.226562 C 172.238281 156.023438 172.339844 155.71875 172.136719 155.410156 C 172.035156 155.308594 171.933594 155.207031 171.730469 155.105469 C 171.832031 155.105469 171.832031 155.003906 171.730469 155.003906 Z M 171.730469 155.003906 " fill-opacity="1" fill-rule="nonzero"/><path fill="#000000" d="M 160.203125 160.710938 C 157.546875 160.507812 155 159.285156 153.160156 157.246094 C 150.613281 154.699219 149.898438 150.824219 151.53125 147.5625 C 155.40625 139.40625 163.566406 142.363281 163.671875 142.464844 C 163.875 142.566406 163.976562 142.769531 163.875 142.972656 C 163.875 143.074219 163.773438 143.175781 163.566406 143.175781 C 156.9375 144.808594 156.324219 150.414062 156.222656 150.621094 C 155.507812 154.492188 157.753906 158.367188 161.527344 159.691406 C 161.730469 159.796875 161.832031 160 161.730469 160.203125 C 161.730469 160.304688 161.628906 160.40625 161.527344 160.40625 C 161.121094 160.609375 160.609375 160.710938 160.203125 160.710938 Z M 160.097656 142.566406 C 157.652344 142.566406 154.285156 143.484375 152.242188 147.867188 C 150.816406 150.824219 151.324219 154.390625 153.773438 156.636719 C 155.40625 158.46875 157.753906 159.691406 160.304688 159.898438 C 156.835938 158.164062 155 154.289062 155.710938 150.519531 C 156.324219 146.949219 158.875 143.992188 162.242188 142.769531 C 161.425781 142.667969 160.8125 142.566406 160.097656 142.566406 Z M 160.097656 142.566406 " fill-opacity="1" fill-rule="nonzero"/><path fill="#000000" d="M 124.1875 153.066406 C 122.863281 153.167969 121.535156 152.761719 120.414062 151.945312 C 120.3125 151.84375 120.210938 151.640625 120.3125 151.539062 C 120.3125 151.332031 120.515625 151.230469 120.71875 151.332031 C 124.699219 151.332031 128.066406 148.480469 128.675781 144.503906 C 129.390625 140.730469 127.65625 136.957031 124.289062 135.019531 C 124.085938 134.917969 124.085938 134.714844 124.1875 134.511719 C 124.289062 134.410156 124.390625 134.308594 124.496094 134.308594 C 124.597656 134.308594 133.269531 134.207031 134.1875 143.175781 C 134.59375 146.746094 132.65625 150.210938 129.390625 151.742188 C 127.859375 152.558594 126.023438 152.964844 124.1875 153.066406 Z M 121.945312 151.945312 C 124.390625 152.558594 126.941406 152.25 129.085938 151.128906 C 132.042969 149.703125 133.878906 146.542969 133.472656 143.277344 C 133.269531 139.097656 130.105469 135.632812 125.820312 135.125 C 128.675781 137.367188 130.105469 141.035156 129.390625 144.605469 C 128.777344 148.480469 125.71875 151.433594 121.945312 151.945312 Z M 121.945312 151.945312 " fill-opacity="1" fill-rule="nonzero"/><g clip-path="url(#6ec780d133)"><g clip-path="url(#0c07d30b86)"><path stroke-linecap="butt" transform="matrix(0.750445, 0, 0, 0.750445, 9.853794, 9.853789)" fill="none" stroke-linejoin="miter" d="M 236.861641 0.00223829 C 106.043456 0.00223829 0.0022323 106.043462 0.0022323 236.861647 C 0.0022323 367.674625 106.043456 473.721055 236.861641 473.721055 C 367.674619 473.721055 473.721049 367.674625 473.721049 236.861647 C 473.721049 106.043462 367.674619 0.00223829 236.861641 0.00223829 Z M 236.861641 0.00223829 " stroke="#a6a6a6" stroke-width="2" stroke-opacity="1" stroke-miterlimit="4"/></g></g></svg>