<svg xmlns="http://www.w3.org/2000/svg" xmlns:xlink="http://www.w3.org/1999/xlink" width="120" zoomAndPan="magnify" viewBox="0 0 90 89.999999" height="120" preserveAspectRatio="xMidYMid meet" version="1.0"><defs><clipPath id="65a642c183"><path d="M 15.003906 30 L 75 30 L 75 64.53125 L 15.003906 64.53125 Z M 15.003906 30 " clip-rule="nonzero"/></clipPath><clipPath id="20d10f659b"><path d="M 37 63 L 38 63 L 38 64.53125 L 37 64.53125 Z M 37 63 " clip-rule="nonzero"/></clipPath><clipPath id="3288ff283e"><path d="M 52 63 L 53 63 L 53 64.53125 L 52 64.53125 Z M 52 63 " clip-rule="nonzero"/></clipPath><clipPath id="621b8c2528"><path d="M 2.363281 2.363281 L 87.863281 2.363281 L 87.863281 87.863281 L 2.363281 87.863281 Z M 2.363281 2.363281 " clip-rule="nonzero"/></clipPath><clipPath id="a6e250bc5a"><path d="M 45.113281 2.363281 C 21.503906 2.363281 2.363281 21.503906 2.363281 45.113281 C 2.363281 68.726562 21.503906 87.863281 45.113281 87.863281 C 68.726562 87.863281 87.863281 68.726562 87.863281 45.113281 C 87.863281 21.503906 68.726562 2.363281 45.113281 2.363281 Z M 45.113281 2.363281 " clip-rule="nonzero"/></clipPath></defs><g clip-path="url(#65a642c183)"><path fill="#000000" d="M 74.863281 64.53125 L 15.144531 64.53125 C 15.097656 64.53125 15.046875 64.480469 15.046875 64.429688 L 15.046875 31.050781 C 15.046875 31.003906 15.097656 30.953125 15.144531 30.953125 L 17.839844 30.953125 C 17.890625 30.953125 17.9375 31.003906 17.9375 31.050781 C 17.9375 31.101562 17.890625 31.148438 17.839844 31.148438 L 15.242188 31.148438 L 15.242188 64.359375 L 74.765625 64.359375 L 74.765625 31.125 L 71.234375 31.125 C 71.1875 31.125 71.136719 31.078125 71.136719 31.027344 C 71.136719 30.976562 71.1875 30.929688 71.234375 30.929688 L 74.863281 30.929688 C 74.910156 30.929688 74.960938 30.976562 74.960938 31.027344 L 74.960938 64.429688 C 74.933594 64.503906 74.910156 64.53125 74.863281 64.53125 Z M 74.863281 64.53125 " fill-opacity="1" fill-rule="nonzero"/></g><path fill="#000000" d="M 17.839844 42.292969 C 17.792969 42.292969 17.742188 42.242188 17.742188 42.195312 L 17.742188 31.050781 C 17.742188 31.003906 17.792969 30.953125 17.839844 30.953125 C 17.890625 30.953125 17.9375 31.003906 17.9375 31.050781 L 17.9375 42.21875 C 17.914062 42.242188 17.890625 42.292969 17.839844 42.292969 Z M 17.839844 42.292969 " fill-opacity="1" fill-rule="nonzero"/><path fill="#000000" d="M 31.660156 61.757812 C 26.097656 61.4375 17.9375 61.4375 17.863281 61.4375 C 17.816406 61.4375 17.765625 61.386719 17.765625 61.339844 L 17.742188 43.714844 C 17.742188 43.667969 17.792969 43.617188 17.839844 43.617188 C 17.890625 43.617188 17.9375 43.667969 17.9375 43.714844 L 17.964844 61.265625 C 18.871094 61.265625 26.417969 61.289062 31.660156 61.585938 C 31.710938 61.585938 31.757812 61.632812 31.757812 61.683594 C 31.757812 61.730469 31.710938 61.757812 31.660156 61.757812 Z M 31.660156 61.757812 " fill-opacity="1" fill-rule="nonzero"/><path fill="#000000" d="M 19.628906 54.320312 C 19.582031 54.320312 19.53125 54.269531 19.53125 54.222656 L 19.382812 29.847656 C 19.382812 29.800781 19.433594 29.75 19.480469 29.75 C 19.53125 29.75 19.582031 29.800781 19.582031 29.847656 L 19.726562 54.222656 C 19.726562 54.269531 19.703125 54.320312 19.628906 54.320312 Z M 19.628906 54.320312 " fill-opacity="1" fill-rule="nonzero"/><path fill="#000000" d="M 19.628906 60.085938 C 19.582031 60.085938 19.53125 60.039062 19.53125 59.988281 L 19.53125 55.105469 C 19.53125 55.054688 19.582031 55.007812 19.628906 55.007812 C 19.679688 55.007812 19.726562 55.054688 19.726562 55.105469 L 19.726562 59.988281 C 19.726562 60.039062 19.679688 60.085938 19.628906 60.085938 Z M 19.628906 60.085938 " fill-opacity="1" fill-rule="nonzero"/><path fill="#000000" d="M 21.589844 46.660156 C 21.539062 46.660156 21.492188 46.613281 21.492188 46.5625 L 21.269531 28.15625 C 21.269531 28.105469 21.320312 28.058594 21.367188 28.058594 C 21.417969 28.058594 21.46875 28.082031 21.46875 28.132812 L 21.6875 46.539062 C 21.6875 46.636719 21.636719 46.660156 21.589844 46.660156 Z M 21.589844 46.660156 " fill-opacity="1" fill-rule="nonzero"/><path fill="#000000" d="M 21.6875 58.46875 C 21.636719 58.46875 21.589844 58.417969 21.589844 58.367188 L 21.492188 47.324219 C 21.492188 47.273438 21.539062 47.226562 21.589844 47.226562 C 21.636719 47.226562 21.6875 47.273438 21.6875 47.324219 L 21.785156 58.367188 C 21.785156 58.417969 21.738281 58.46875 21.6875 58.46875 Z M 21.6875 58.46875 " fill-opacity="1" fill-rule="nonzero"/><path fill="#000000" d="M 16.175781 62.859375 C 16.125 62.859375 16.078125 62.8125 16.078125 62.761719 C 16.078125 62.738281 16.101562 62.714844 16.101562 62.6875 L 23.011719 57.238281 L 22.988281 26.488281 C 22.988281 26.4375 23.035156 26.386719 23.085938 26.386719 C 23.132812 26.386719 23.183594 26.4375 23.183594 26.488281 L 23.207031 57.289062 C 23.207031 57.3125 23.183594 57.339844 23.183594 57.363281 L 16.222656 62.835938 C 16.222656 62.835938 16.199219 62.859375 16.175781 62.859375 Z M 16.175781 62.859375 " fill-opacity="1" fill-rule="nonzero"/><path fill="#000000" d="M 44.695312 63.203125 C 44.671875 63.203125 44.648438 63.203125 44.625 63.179688 C 39.132812 57.363281 23.257812 57.386719 23.109375 57.363281 C 23.058594 57.363281 23.011719 57.3125 23.011719 57.265625 C 23.011719 57.214844 23.058594 57.167969 23.109375 57.167969 C 23.28125 57.167969 39.234375 57.167969 44.769531 63.03125 C 44.796875 63.082031 44.796875 63.128906 44.769531 63.15625 C 44.746094 63.203125 44.722656 63.203125 44.695312 63.203125 Z M 44.695312 63.203125 " fill-opacity="1" fill-rule="nonzero"/><path fill="#000000" d="M 27.324219 58.761719 C 25.707031 58.515625 21.738281 58.46875 21.6875 58.46875 C 21.636719 58.46875 21.589844 58.417969 21.589844 58.367188 C 21.589844 58.320312 21.636719 58.269531 21.6875 58.269531 C 21.738281 58.269531 25.730469 58.320312 27.324219 58.566406 C 27.371094 58.566406 27.398438 58.613281 27.398438 58.664062 C 27.421875 58.710938 27.371094 58.761719 27.324219 58.761719 Z M 27.324219 58.761719 " fill-opacity="1" fill-rule="nonzero"/><path fill="#000000" d="M 39.941406 63.449219 C 39.917969 63.449219 39.894531 63.449219 39.871094 63.425781 C 35.410156 58.957031 19.800781 60.0625 19.628906 60.085938 C 19.582031 60.085938 19.53125 60.0625 19.53125 60.011719 C 19.53125 59.964844 19.554688 59.914062 19.605469 59.914062 C 20.242188 59.867188 35.460938 58.785156 39.992188 63.300781 C 40.015625 63.328125 40.015625 63.402344 39.992188 63.425781 C 39.992188 63.449219 39.96875 63.449219 39.941406 63.449219 Z M 39.941406 63.449219 " fill-opacity="1" fill-rule="nonzero"/><path fill="#000000" d="M 37.46875 63.402344 C 37.445312 63.402344 37.417969 63.402344 37.417969 63.375 C 35.730469 62.148438 32.984375 61.976562 32.960938 61.976562 C 32.910156 61.976562 32.863281 61.929688 32.863281 61.878906 C 32.863281 61.828125 32.910156 61.78125 32.960938 61.78125 C 33.082031 61.78125 35.800781 61.953125 37.515625 63.203125 C 37.566406 63.230469 37.566406 63.300781 37.542969 63.328125 C 37.515625 63.375 37.492188 63.402344 37.46875 63.402344 Z M 37.46875 63.402344 " fill-opacity="1" fill-rule="nonzero"/><path fill="#000000" d="M 41.953125 45.359375 C 41.929688 45.359375 41.929688 45.359375 41.902344 45.335938 C 35.410156 41.066406 25.851562 41.359375 25.753906 41.359375 C 25.707031 41.359375 25.65625 41.3125 25.65625 41.261719 C 25.65625 41.214844 25.707031 41.164062 25.753906 41.164062 C 25.851562 41.164062 35.460938 40.871094 42.027344 45.164062 C 42.074219 45.1875 42.074219 45.238281 42.050781 45.289062 C 42 45.335938 41.976562 45.335938 41.953125 45.359375 Z M 41.953125 45.359375 " fill-opacity="1" fill-rule="nonzero"/><path fill="#000000" d="M 41.929688 47.9375 C 41.902344 47.9375 41.902344 47.9375 41.878906 47.914062 C 35.386719 43.667969 25.804688 43.960938 25.707031 43.960938 C 25.65625 43.960938 25.609375 43.914062 25.609375 43.863281 C 25.609375 43.816406 25.65625 43.765625 25.707031 43.765625 C 25.804688 43.765625 35.410156 43.472656 41.976562 47.765625 C 42.027344 47.789062 42.027344 47.839844 42 47.890625 C 41.976562 47.914062 41.953125 47.9375 41.929688 47.9375 Z M 41.929688 47.9375 " fill-opacity="1" fill-rule="nonzero"/><path fill="#000000" d="M 42.125 50.785156 C 42.101562 50.785156 42.101562 50.785156 42.074219 50.761719 C 35.582031 46.515625 25.851562 46.808594 25.753906 46.832031 C 25.707031 46.832031 25.65625 46.808594 25.65625 46.761719 C 25.65625 46.710938 25.707031 46.660156 25.753906 46.660156 C 25.851562 46.660156 35.65625 46.34375 42.199219 50.636719 C 42.246094 50.664062 42.246094 50.710938 42.222656 50.761719 C 42.199219 50.761719 42.171875 50.785156 42.125 50.785156 Z M 42.125 50.785156 " fill-opacity="1" fill-rule="nonzero"/><path fill="#000000" d="M 42.566406 53.679688 C 42.539062 53.679688 42.539062 53.679688 42.515625 53.65625 C 36.023438 49.410156 25.730469 49.679688 25.609375 49.679688 C 25.558594 49.679688 25.511719 49.632812 25.511719 49.582031 C 25.511719 49.535156 25.558594 49.484375 25.609375 49.484375 C 25.707031 49.484375 36.070312 49.191406 42.613281 53.484375 C 42.664062 53.507812 42.664062 53.558594 42.640625 53.609375 C 42.613281 53.65625 42.589844 53.679688 42.566406 53.679688 Z M 42.566406 53.679688 " fill-opacity="1" fill-rule="nonzero"/><path fill="#000000" d="M 42.34375 56.308594 C 42.320312 56.308594 42.320312 56.308594 42.296875 56.28125 C 35.800781 52.035156 25.707031 52.480469 25.609375 52.480469 C 25.558594 52.480469 25.511719 52.453125 25.511719 52.40625 C 25.511719 52.355469 25.535156 52.308594 25.609375 52.308594 C 25.707031 52.308594 35.851562 51.839844 42.394531 56.136719 C 42.441406 56.160156 42.441406 56.210938 42.417969 56.257812 C 42.417969 56.28125 42.371094 56.308594 42.34375 56.308594 Z M 42.34375 56.308594 " fill-opacity="1" fill-rule="nonzero"/><path fill="#000000" d="M 42.34375 59.105469 C 42.320312 59.105469 42.320312 59.105469 42.296875 59.082031 C 35.800781 54.835938 25.460938 55.179688 25.363281 55.203125 C 25.3125 55.203125 25.265625 55.179688 25.265625 55.128906 C 25.265625 55.082031 25.3125 55.03125 25.363281 55.03125 C 25.460938 55.03125 35.875 54.664062 42.417969 58.957031 C 42.46875 58.984375 42.46875 59.03125 42.441406 59.082031 C 42.417969 59.105469 42.394531 59.105469 42.34375 59.105469 Z M 42.34375 59.105469 " fill-opacity="1" fill-rule="nonzero"/><path fill="#000000" d="M 44.695312 63.597656 C 44.648438 63.597656 44.597656 63.546875 44.597656 63.5 C 44.597656 63.449219 44.648438 63.402344 44.695312 63.402344 L 72.804688 62.664062 L 72.535156 32.058594 C 69.054688 29.898438 66.261719 26.902344 65.96875 26.558594 C 51.3125 25.726562 44.695312 32.722656 44.625 32.792969 C 44.597656 32.820312 44.527344 32.820312 44.5 32.792969 C 44.476562 32.769531 44.476562 32.695312 44.5 32.671875 C 44.574219 32.597656 51.238281 25.53125 66.015625 26.386719 C 66.039062 26.386719 66.066406 26.414062 66.089844 26.414062 C 66.113281 26.4375 69.03125 29.652344 72.707031 31.910156 C 72.730469 31.933594 72.753906 31.960938 72.753906 31.984375 L 73.023438 62.738281 C 73.023438 62.785156 72.976562 62.835938 72.925781 62.835938 Z M 44.695312 63.597656 " fill-opacity="1" fill-rule="nonzero"/><path fill="#000000" d="M 71.234375 42.292969 C 71.1875 42.292969 71.136719 42.242188 71.136719 42.195312 L 71.136719 31.101562 C 71.136719 31.050781 71.1875 31.003906 71.234375 31.003906 C 71.285156 31.003906 71.332031 31.050781 71.332031 31.101562 L 71.332031 42.21875 C 71.332031 42.269531 71.285156 42.292969 71.234375 42.292969 Z M 71.234375 42.292969 " fill-opacity="1" fill-rule="nonzero"/><path fill="#000000" d="M 57.414062 61.78125 C 57.367188 61.78125 57.316406 61.730469 57.316406 61.683594 C 57.316406 61.632812 57.367188 61.585938 57.390625 61.585938 C 62.632812 61.289062 70.179688 61.265625 71.089844 61.265625 L 71.113281 43.714844 C 71.113281 43.667969 71.160156 43.617188 71.210938 43.617188 C 71.261719 43.617188 71.308594 43.667969 71.308594 43.714844 L 71.285156 61.339844 C 71.285156 61.386719 71.234375 61.4375 71.1875 61.4375 C 71.113281 61.460938 62.976562 61.460938 57.414062 61.78125 Z M 57.414062 61.78125 " fill-opacity="1" fill-rule="nonzero"/><path fill="#000000" d="M 69.421875 54.320312 C 69.371094 54.320312 69.324219 54.269531 69.324219 54.222656 L 69.472656 29.875 C 69.472656 29.824219 69.519531 29.777344 69.570312 29.777344 C 69.617188 29.777344 69.667969 29.824219 69.667969 29.875 L 69.519531 54.222656 C 69.519531 54.269531 69.472656 54.320312 69.421875 54.320312 Z M 69.421875 54.320312 " fill-opacity="1" fill-rule="nonzero"/><path fill="#000000" d="M 69.421875 60.085938 C 69.371094 60.085938 69.324219 60.039062 69.324219 59.988281 L 69.324219 55.105469 C 69.324219 55.054688 69.371094 55.007812 69.421875 55.007812 C 69.472656 55.007812 69.519531 55.054688 69.519531 55.105469 L 69.519531 59.988281 C 69.519531 60.0625 69.472656 60.085938 69.421875 60.085938 Z M 69.421875 60.085938 " fill-opacity="1" fill-rule="nonzero"/><path fill="#000000" d="M 67.484375 46.6875 C 67.4375 46.6875 67.386719 46.636719 67.386719 46.589844 L 67.609375 28.179688 C 67.609375 28.132812 67.632812 28.082031 67.683594 28.082031 C 67.730469 28.082031 67.78125 28.132812 67.78125 28.179688 L 67.558594 46.589844 C 67.558594 46.636719 67.535156 46.6875 67.484375 46.6875 Z M 67.484375 46.6875 " fill-opacity="1" fill-rule="nonzero"/><path fill="#000000" d="M 67.363281 58.46875 C 67.316406 58.46875 67.265625 58.417969 67.265625 58.367188 L 67.363281 47.324219 C 67.363281 47.273438 67.414062 47.226562 67.460938 47.226562 C 67.511719 47.226562 67.558594 47.273438 67.558594 47.324219 L 67.460938 58.367188 C 67.460938 58.417969 67.414062 58.46875 67.363281 58.46875 Z M 67.363281 58.46875 " fill-opacity="1" fill-rule="nonzero"/><path fill="#000000" d="M 72.878906 62.859375 C 72.851562 62.859375 72.828125 62.859375 72.828125 62.835938 L 65.894531 57.363281 C 65.867188 57.339844 65.867188 57.3125 65.867188 57.289062 L 65.894531 26.488281 C 65.894531 26.4375 65.941406 26.386719 65.992188 26.386719 C 66.039062 26.386719 66.089844 26.4375 66.089844 26.488281 L 66.039062 57.238281 L 72.949219 62.6875 C 73 62.714844 73 62.785156 72.976562 62.8125 C 72.949219 62.835938 72.925781 62.859375 72.878906 62.859375 Z M 72.878906 62.859375 " fill-opacity="1" fill-rule="nonzero"/><path fill="#000000" d="M 44.695312 63.203125 C 44.648438 63.203125 44.597656 63.15625 44.597656 63.105469 C 44.597656 63.082031 44.597656 63.058594 44.625 63.03125 C 50.160156 57.167969 65.769531 57.167969 65.941406 57.167969 C 65.992188 57.167969 66.039062 57.214844 66.039062 57.265625 C 66.039062 57.3125 65.992188 57.363281 65.941406 57.363281 C 65.941406 57.363281 65.941406 57.363281 65.917969 57.363281 C 65.402344 57.363281 50.160156 57.4375 44.746094 63.15625 C 44.746094 63.203125 44.722656 63.203125 44.695312 63.203125 Z M 44.695312 63.203125 " fill-opacity="1" fill-rule="nonzero"/><path fill="#000000" d="M 61.726562 58.761719 C 61.679688 58.761719 61.628906 58.710938 61.628906 58.664062 C 61.628906 58.613281 61.652344 58.589844 61.703125 58.566406 C 63.320312 58.320312 67.316406 58.269531 67.339844 58.269531 C 67.386719 58.269531 67.4375 58.320312 67.4375 58.367188 C 67.4375 58.417969 67.386719 58.46875 67.339844 58.46875 C 67.339844 58.46875 63.34375 58.515625 61.726562 58.761719 C 61.753906 58.761719 61.753906 58.761719 61.726562 58.761719 Z M 61.726562 58.761719 " fill-opacity="1" fill-rule="nonzero"/><path fill="#000000" d="M 49.109375 63.472656 C 49.058594 63.472656 49.011719 63.425781 49.011719 63.375 C 49.011719 63.351562 49.011719 63.328125 49.035156 63.300781 C 53.542969 58.785156 68.761719 59.867188 69.421875 59.914062 C 69.472656 59.914062 69.519531 59.964844 69.496094 60.011719 C 69.496094 60.0625 69.445312 60.113281 69.398438 60.085938 C 69.25 60.085938 53.617188 58.984375 49.15625 63.425781 C 49.15625 63.449219 49.132812 63.472656 49.109375 63.472656 Z M 49.109375 63.472656 " fill-opacity="1" fill-rule="nonzero"/><path fill="#000000" d="M 51.605469 63.402344 C 51.558594 63.402344 51.507812 63.351562 51.507812 63.300781 C 51.507812 63.277344 51.535156 63.253906 51.558594 63.230469 C 53.296875 61.976562 56.019531 61.804688 56.117188 61.804688 C 56.164062 61.804688 56.214844 61.828125 56.214844 61.902344 C 56.214844 61.953125 56.191406 62 56.117188 62 C 56.089844 62 53.324219 62.171875 51.65625 63.402344 C 51.65625 63.402344 51.632812 63.402344 51.605469 63.402344 Z M 51.605469 63.402344 " fill-opacity="1" fill-rule="nonzero"/><path fill="#000000" d="M 46.511719 53.679688 C 46.460938 53.679688 46.414062 53.632812 46.414062 53.582031 C 46.414062 53.558594 46.4375 53.535156 46.460938 53.507812 C 53.003906 49.214844 63.371094 49.507812 63.46875 49.507812 C 63.515625 49.507812 63.566406 49.558594 63.566406 49.605469 C 63.566406 49.65625 63.515625 49.707031 63.46875 49.707031 C 63.371094 49.707031 53.078125 49.410156 46.585938 53.679688 C 46.535156 53.679688 46.535156 53.679688 46.511719 53.679688 Z M 46.511719 53.679688 " fill-opacity="1" fill-rule="nonzero"/><path fill="#000000" d="M 46.707031 56.308594 C 46.65625 56.308594 46.609375 56.257812 46.609375 56.210938 C 46.609375 56.183594 46.632812 56.160156 46.65625 56.136719 C 53.199219 51.839844 63.34375 52.308594 63.441406 52.308594 C 63.492188 52.308594 63.539062 52.355469 63.539062 52.40625 C 63.539062 52.453125 63.492188 52.503906 63.441406 52.503906 C 63.34375 52.503906 53.25 52.035156 46.753906 56.308594 C 46.753906 56.308594 46.730469 56.308594 46.707031 56.308594 Z M 46.707031 56.308594 " fill-opacity="1" fill-rule="nonzero"/><path fill="#000000" d="M 46.707031 59.128906 C 46.65625 59.128906 46.609375 59.082031 46.609375 59.03125 C 46.609375 59.007812 46.632812 58.984375 46.65625 58.957031 C 53.199219 54.664062 63.589844 55.03125 63.710938 55.03125 C 63.761719 55.03125 63.808594 55.082031 63.808594 55.128906 C 63.808594 55.179688 63.761719 55.226562 63.710938 55.226562 C 63.613281 55.226562 53.273438 54.859375 46.78125 59.105469 C 46.753906 59.128906 46.730469 59.128906 46.707031 59.128906 Z M 46.707031 59.128906 " fill-opacity="1" fill-rule="nonzero"/><path fill="#000000" d="M 46.925781 34.339844 C 46.878906 34.339844 46.828125 34.292969 46.828125 34.242188 C 46.828125 34.21875 46.855469 34.195312 46.878906 34.167969 C 53.421875 29.875 63.785156 30.167969 63.882812 30.167969 C 63.933594 30.167969 63.980469 30.21875 63.980469 30.265625 C 63.980469 30.316406 63.933594 30.363281 63.882812 30.363281 C 63.785156 30.363281 53.496094 30.070312 47 34.339844 C 46.953125 34.339844 46.953125 34.339844 46.925781 34.339844 Z M 46.925781 34.339844 " fill-opacity="1" fill-rule="nonzero"/><path fill="#000000" d="M 47.125 36.96875 C 47.074219 36.96875 47.023438 36.917969 47.023438 36.867188 C 47.023438 36.84375 47.050781 36.820312 47.074219 36.796875 C 53.617188 32.5 63.761719 32.964844 63.859375 32.964844 C 63.910156 32.964844 63.957031 33.015625 63.957031 33.066406 C 63.957031 33.113281 63.910156 33.164062 63.859375 33.164062 C 63.761719 33.164062 53.664062 32.695312 47.171875 36.96875 C 47.171875 36.96875 47.148438 36.96875 47.125 36.96875 Z M 47.125 36.96875 " fill-opacity="1" fill-rule="nonzero"/><path fill="#000000" d="M 47.125 39.789062 C 47.074219 39.789062 47.023438 39.742188 47.023438 39.691406 C 47.023438 39.667969 47.050781 39.640625 47.074219 39.617188 C 53.617188 35.324219 64.007812 35.691406 64.128906 35.691406 C 64.179688 35.691406 64.226562 35.738281 64.226562 35.789062 C 64.226562 35.839844 64.179688 35.886719 64.128906 35.886719 C 64.03125 35.886719 53.691406 35.519531 47.195312 39.765625 C 47.171875 39.789062 47.148438 39.789062 47.125 39.789062 Z M 47.125 39.789062 " fill-opacity="1" fill-rule="nonzero"/><path fill="#000000" d="M 44.695312 63.597656 L 16.175781 62.859375 C 16.125 62.859375 16.078125 62.8125 16.078125 62.761719 L 16.347656 32.007812 C 16.347656 31.984375 16.371094 31.960938 16.394531 31.933594 C 20.046875 29.675781 22.960938 26.460938 23.011719 26.4375 C 23.035156 26.414062 23.058594 26.414062 23.085938 26.414062 C 37.859375 25.554688 44.550781 32.621094 44.597656 32.695312 C 44.625 32.722656 44.625 32.746094 44.625 32.769531 L 44.796875 63.546875 C 44.796875 63.574219 44.746094 63.597656 44.695312 63.597656 Z M 16.273438 62.664062 L 44.625 63.425781 L 44.453125 32.769531 C 44.011719 32.304688 37.347656 25.75 23.132812 26.558594 C 22.816406 26.878906 20.019531 29.898438 16.542969 32.058594 Z M 16.273438 62.664062 " fill-opacity="1" fill-rule="nonzero"/><g clip-path="url(#20d10f659b)"><path fill="#000000" d="M 37.46875 64.53125 C 37.417969 64.53125 37.371094 64.480469 37.371094 64.429688 L 37.371094 63.300781 C 37.371094 63.253906 37.417969 63.203125 37.46875 63.203125 C 37.515625 63.203125 37.566406 63.253906 37.566406 63.300781 L 37.566406 64.429688 C 37.542969 64.503906 37.515625 64.53125 37.46875 64.53125 Z M 37.46875 64.53125 " fill-opacity="1" fill-rule="nonzero"/></g><g clip-path="url(#3288ff283e)"><path fill="#000000" d="M 52.097656 64.53125 C 52.046875 64.53125 52 64.480469 52 64.429688 L 52 63.300781 C 52 63.253906 52.046875 63.203125 52.097656 63.203125 C 52.144531 63.203125 52.195312 63.253906 52.195312 63.300781 L 52.195312 64.429688 C 52.195312 64.503906 52.171875 64.53125 52.097656 64.53125 Z M 52.097656 64.53125 " fill-opacity="1" fill-rule="nonzero"/></g><path fill="#000000" d="M 56.800781 39.027344 C 56.753906 39.027344 56.703125 38.980469 56.703125 38.929688 C 56.703125 38.882812 56.730469 38.855469 56.777344 38.832031 C 61.042969 38.167969 63.859375 38.390625 63.882812 38.390625 C 63.933594 38.390625 63.980469 38.441406 63.957031 38.488281 C 63.957031 38.539062 63.910156 38.585938 63.859375 38.5625 C 63.835938 38.585938 61.042969 38.367188 56.800781 39.027344 Z M 56.800781 39.027344 " fill-opacity="1" fill-rule="nonzero"/><path fill="#000000" d="M 56.972656 42.046875 C 56.925781 42.046875 56.875 42 56.875 41.949219 C 56.875 41.898438 56.898438 41.875 56.949219 41.851562 C 61.214844 41.1875 64.03125 41.410156 64.054688 41.410156 C 64.105469 41.410156 64.152344 41.457031 64.128906 41.507812 C 64.128906 41.554688 64.078125 41.605469 64.03125 41.582031 C 64.03125 41.605469 61.238281 41.410156 56.972656 42.046875 C 57 42.046875 57 42.046875 56.972656 42.046875 Z M 56.972656 42.046875 " fill-opacity="1" fill-rule="nonzero"/><path fill="#000000" d="M 57.023438 44.773438 C 56.972656 44.773438 56.925781 44.722656 56.925781 44.671875 C 56.925781 44.625 56.949219 44.601562 57 44.574219 C 61.261719 43.914062 64.078125 44.132812 64.105469 44.132812 C 64.152344 44.132812 64.203125 44.183594 64.179688 44.230469 C 64.179688 44.28125 64.128906 44.328125 64.078125 44.304688 C 64.054688 44.328125 61.261719 44.132812 57.023438 44.773438 Z M 57.023438 44.773438 " fill-opacity="1" fill-rule="nonzero"/><path fill="#000000" d="M 56.972656 47.421875 C 56.925781 47.421875 56.875 47.375 56.875 47.324219 C 56.875 47.273438 56.898438 47.25 56.949219 47.226562 C 61.214844 46.5625 64.03125 46.785156 64.054688 46.785156 C 64.105469 46.785156 64.152344 46.832031 64.128906 46.882812 C 64.128906 46.933594 64.078125 46.980469 64.03125 46.957031 C 64.03125 46.957031 61.238281 46.761719 56.972656 47.421875 C 57 47.421875 57 47.421875 56.972656 47.421875 Z M 56.972656 47.421875 " fill-opacity="1" fill-rule="nonzero"/><path fill="#000000" d="M 41.953125 42.660156 C 41.929688 42.660156 41.929688 42.660156 41.902344 42.660156 C 34.847656 38.929688 25.511719 38.734375 25.414062 38.734375 C 25.363281 38.734375 25.3125 38.683594 25.3125 38.636719 L 25.191406 29.503906 C 25.191406 29.457031 25.242188 29.40625 25.289062 29.40625 C 35.410156 29.015625 42.125 34.242188 42.199219 34.292969 C 42.222656 34.316406 42.222656 34.339844 42.222656 34.367188 L 42.050781 42.5625 C 42.050781 42.585938 42.027344 42.613281 42 42.636719 C 41.976562 42.636719 41.976562 42.660156 41.953125 42.660156 Z M 25.511719 38.539062 C 26.492188 38.5625 35.164062 38.929688 41.855469 42.390625 L 42.027344 34.390625 C 41.488281 33.972656 34.992188 29.210938 25.363281 29.578125 Z M 25.511719 38.539062 " fill-opacity="1" fill-rule="nonzero"/><path fill="#000000" d="M 29.113281 35.078125 C 28.746094 35.078125 28.449219 34.78125 28.449219 34.414062 C 28.449219 34.046875 28.746094 33.75 29.113281 33.75 C 29.480469 33.75 29.773438 34.046875 29.773438 34.414062 C 29.796875 34.78125 29.480469 35.078125 29.113281 35.078125 Z M 29.113281 33.921875 C 28.84375 33.921875 28.621094 34.144531 28.621094 34.414062 C 28.621094 34.683594 28.84375 34.90625 29.113281 34.90625 C 29.382812 34.90625 29.601562 34.683594 29.601562 34.414062 C 29.601562 34.144531 29.382812 33.921875 29.113281 33.921875 Z M 29.113281 33.921875 " fill-opacity="1" fill-rule="nonzero"/><path fill="#000000" d="M 27.640625 34.808594 C 27.371094 34.808594 27.152344 34.585938 27.152344 34.316406 C 27.152344 34.046875 27.371094 33.824219 27.640625 33.824219 C 27.910156 33.824219 28.132812 34.046875 28.132812 34.316406 C 28.132812 34.585938 27.910156 34.808594 27.640625 34.808594 Z M 27.640625 34.023438 C 27.46875 34.023438 27.347656 34.144531 27.347656 34.316406 C 27.347656 34.488281 27.46875 34.609375 27.640625 34.609375 C 27.8125 34.609375 27.9375 34.488281 27.9375 34.316406 C 27.9375 34.144531 27.8125 34.023438 27.640625 34.023438 Z M 27.640625 34.023438 " fill-opacity="1" fill-rule="nonzero"/><path fill="#000000" d="M 26.660156 34.5625 C 26.492188 34.5625 26.34375 34.414062 26.34375 34.242188 C 26.34375 34.070312 26.492188 33.921875 26.660156 33.921875 C 26.832031 33.921875 26.980469 34.070312 26.980469 34.242188 C 27.003906 34.414062 26.859375 34.5625 26.660156 34.5625 Z M 26.660156 34.09375 C 26.589844 34.09375 26.515625 34.167969 26.515625 34.242188 C 26.515625 34.316406 26.589844 34.390625 26.660156 34.390625 C 26.734375 34.390625 26.808594 34.316406 26.808594 34.242188 C 26.808594 34.144531 26.734375 34.09375 26.660156 34.09375 Z M 26.660156 34.09375 " fill-opacity="1" fill-rule="nonzero"/><path fill="#000000" d="M 38.9375 37.210938 C 38.570312 37.210938 38.277344 36.917969 38.277344 36.550781 C 38.277344 36.476562 38.277344 36.425781 38.300781 36.351562 C 38.398438 36.007812 38.765625 35.789062 39.132812 35.886719 C 39.476562 35.984375 39.699219 36.351562 39.601562 36.722656 C 39.503906 37.015625 39.234375 37.210938 38.9375 37.210938 Z M 38.472656 36.402344 C 38.398438 36.671875 38.546875 36.941406 38.792969 37.015625 C 39.0625 37.089844 39.332031 36.941406 39.402344 36.695312 C 39.476562 36.425781 39.332031 36.15625 39.085938 36.082031 C 38.816406 35.984375 38.546875 36.132812 38.472656 36.402344 Z M 38.472656 36.402344 " fill-opacity="1" fill-rule="nonzero"/><path fill="#000000" d="M 34.257812 36.867188 C 34.085938 36.867188 33.941406 36.84375 33.769531 36.796875 C 32.863281 36.523438 32.347656 35.59375 32.617188 34.683594 C 32.886719 33.777344 33.816406 33.261719 34.722656 33.53125 C 35.628906 33.800781 36.144531 34.734375 35.875 35.640625 C 35.65625 36.351562 34.992188 36.84375 34.257812 36.867188 Z M 34.234375 33.628906 C 33.546875 33.628906 32.960938 34.070312 32.789062 34.734375 C 32.566406 35.542969 33.007812 36.378906 33.816406 36.625 C 34.625 36.84375 35.460938 36.402344 35.703125 35.59375 C 35.925781 34.78125 35.484375 33.949219 34.675781 33.703125 C 34.527344 33.652344 34.382812 33.628906 34.234375 33.628906 Z M 32.691406 34.707031 Z M 32.691406 34.707031 " fill-opacity="1" fill-rule="nonzero"/><path fill="#000000" d="M 40.335938 37.507812 C 40.066406 37.507812 39.84375 37.285156 39.84375 37.015625 C 39.84375 36.746094 40.066406 36.523438 40.335938 36.523438 C 40.605469 36.523438 40.824219 36.746094 40.824219 37.015625 C 40.824219 37.066406 40.824219 37.113281 40.800781 37.140625 C 40.726562 37.382812 40.554688 37.507812 40.335938 37.507812 Z M 40.335938 36.746094 C 40.214844 36.746094 40.089844 36.84375 40.042969 36.96875 C 39.992188 37.113281 40.089844 37.285156 40.238281 37.335938 C 40.382812 37.382812 40.554688 37.285156 40.605469 37.140625 C 40.652344 36.992188 40.554688 36.820312 40.410156 36.769531 C 40.382812 36.746094 40.359375 36.746094 40.335938 36.746094 Z M 40.335938 36.746094 " fill-opacity="1" fill-rule="nonzero"/><path fill="#000000" d="M 41.242188 37.726562 C 41.21875 37.726562 41.167969 37.726562 41.144531 37.703125 C 40.972656 37.652344 40.875 37.480469 40.921875 37.285156 C 40.972656 37.113281 41.144531 37.015625 41.339844 37.066406 C 41.535156 37.113281 41.609375 37.285156 41.5625 37.480469 C 41.511719 37.628906 41.390625 37.726562 41.242188 37.726562 Z M 41.242188 37.238281 C 41.167969 37.238281 41.09375 37.308594 41.09375 37.382812 C 41.09375 37.457031 41.144531 37.507812 41.191406 37.53125 C 41.242188 37.53125 41.265625 37.53125 41.292969 37.53125 C 41.363281 37.480469 41.390625 37.410156 41.339844 37.335938 C 41.316406 37.308594 41.292969 37.285156 41.242188 37.261719 C 41.265625 37.261719 41.265625 37.238281 41.242188 37.238281 Z M 41.242188 37.238281 " fill-opacity="1" fill-rule="nonzero"/><path fill="#000000" d="M 38.472656 38.613281 C 37.835938 38.5625 37.222656 38.269531 36.78125 37.777344 C 36.167969 37.164062 36 36.230469 36.390625 35.445312 C 37.320312 33.480469 39.28125 34.195312 39.304688 34.21875 C 39.355469 34.242188 39.378906 34.292969 39.355469 34.339844 C 39.355469 34.367188 39.332031 34.390625 39.28125 34.390625 C 37.6875 34.78125 37.542969 36.132812 37.515625 36.179688 C 37.347656 37.113281 37.886719 38.046875 38.792969 38.367188 C 38.839844 38.390625 38.863281 38.441406 38.839844 38.488281 C 38.839844 38.511719 38.816406 38.539062 38.792969 38.539062 C 38.695312 38.585938 38.570312 38.613281 38.472656 38.613281 Z M 38.449219 34.242188 C 37.859375 34.242188 37.050781 34.464844 36.5625 35.519531 C 36.21875 36.230469 36.339844 37.089844 36.929688 37.628906 C 37.320312 38.070312 37.886719 38.367188 38.496094 38.414062 C 37.664062 37.996094 37.222656 37.066406 37.394531 36.15625 C 37.542969 35.296875 38.15625 34.585938 38.964844 34.292969 C 38.765625 34.265625 38.621094 34.242188 38.449219 34.242188 Z M 38.449219 34.242188 " fill-opacity="1" fill-rule="nonzero"/><path fill="#000000" d="M 29.824219 36.769531 C 29.503906 36.796875 29.1875 36.695312 28.917969 36.5 C 28.890625 36.476562 28.867188 36.425781 28.890625 36.402344 C 28.890625 36.351562 28.941406 36.328125 28.988281 36.351562 C 29.945312 36.351562 30.753906 35.667969 30.902344 34.707031 C 31.074219 33.800781 30.65625 32.894531 29.847656 32.425781 C 29.796875 32.402344 29.796875 32.351562 29.824219 32.304688 C 29.847656 32.277344 29.871094 32.253906 29.898438 32.253906 C 29.921875 32.253906 32.003906 32.230469 32.222656 34.390625 C 32.324219 35.25 31.855469 36.082031 31.074219 36.453125 C 30.707031 36.648438 30.265625 36.746094 29.824219 36.769531 Z M 29.285156 36.5 C 29.871094 36.648438 30.484375 36.574219 31 36.304688 C 31.710938 35.960938 32.152344 35.199219 32.054688 34.414062 C 32.003906 33.40625 31.246094 32.574219 30.214844 32.449219 C 30.902344 32.992188 31.246094 33.875 31.074219 34.734375 C 30.925781 35.667969 30.191406 36.378906 29.285156 36.5 Z M 29.285156 36.5 " fill-opacity="1" fill-rule="nonzero"/><g clip-path="url(#621b8c2528)"><g clip-path="url(#a6e250bc5a)"><path stroke-linecap="butt" transform="matrix(0.752061, 0, 0, 0.752061, 2.36491, 2.364911)" fill="none" stroke-linejoin="miter" d="M 56.841591 -0.00216745 C 25.448712 -0.00216745 -0.00216546 25.44871 -0.00216546 56.841589 C -0.00216546 88.239662 25.448712 113.685345 56.841591 113.685345 C 88.239664 113.685345 113.685347 88.239662 113.685347 56.841589 C 113.685347 25.44871 88.239664 -0.00216745 56.841591 -0.00216745 Z M 56.841591 -0.00216745 " stroke="#a6a6a6" stroke-width="2" stroke-opacity="1" stroke-miterlimit="4"/></g></g></svg>